<svg xmlns="http://www.w3.org/2000/svg" width="15" height="13" viewBox="0 0 15 13"><defs><style>.a{fill:#fff;}</style></defs><path class="a" d="M17.836,15.545,11.386,4.612a1.054,1.054,0,0,0-1.8,0L3.139,15.545a1.02,1.02,0,0,0-.016,1.044,1.042,1.042,0,0,0,.915.52h12.9a1.042,1.042,0,0,0,.915-.52A1.02,1.02,0,0,0,17.836,15.545ZM9.73,7.864h1.515a.422.422,0,0,1,.424.42L11.5,11.675a.409.409,0,0,1-.125.294.418.418,0,0,1-.3.118H9.9a.419.419,0,0,1-.3-.118.409.409,0,0,1-.125-.294L9.306,8.284A.422.422,0,0,1,9.73,7.864Zm.757,7.294a1.235,1.235,0,1,1,1.248-1.26,1.228,1.228,0,0,1-.357.889A1.255,1.255,0,0,1,10.488,15.158Z" transform="translate(-2.988 -4.109)"/></svg>