<svg xmlns="http://www.w3.org/2000/svg" width="15" height="15" viewBox="0 0 15 15"><defs><style>.a{fill:#626262;}.b{fill:#fff;}</style></defs><g transform="translate(-2348 -6481)"><rect class="a" width="6" height="11" transform="translate(2353 6483)"/><path class="b" d="M7.5,0A7.5,7.5,0,1,0,15,7.5,7.5,7.5,0,0,0,7.5,0ZM8.518,10.752A1.071,1.071,0,0,1,7.5,11.875a1.071,1.071,0,0,1-1.018-1.123V7.689A1.072,1.072,0,0,1,7.5,6.564,1.072,1.072,0,0,1,8.519,7.689Zm0-5.786a1.018,1.018,0,1,1-2.037,0V4.719a1.018,1.018,0,1,1,2.037,0Z" transform="translate(2348 6481)"/></g></svg>